<svg xmlns="http://www.w3.org/2000/svg" viewBox="0 0 21.797 21.797" width="512" height="512"><path d="M10.653 8.76l8.145-1.321v11.043c0 .914-.681 1.644-1.744 1.913-1.168.289-2.294-.2-2.519-1.095-.224-.897.541-1.858 1.708-2.15a2.609 2.609 0 0 1 1.481.05v-6.654l-5.969 1.092-.028 8.276c-.005.783-.713 1.554-1.729 1.805-1.153.289-2.363-.26-2.492-1.081-.221-.886.534-1.837 1.691-2.127a2.55 2.55 0 0 1 1.456.046V8.76zm-3.062 4.05L7.62 2.581s2.228-.119 4.407 3.298c0 0 .006-1.764-1.669-3.055C7.087.54 7.096 0 7.096 0c-.624.073-.688.547-.688.547v10.771a2.814 2.814 0 0 0-1.602-.05c-1.27.314-2.1 1.363-1.857 2.338.143.901 1.471 1.506 2.74 1.187 1.115-.278 1.894-1.12 1.9-1.983h.002zm5.924-6.61c.388-.097.659-.39.661-.69h.001l.01-3.559s.775-.041 1.533 1.148c0 0 .001-.614-.582-1.062-1.138-.795-1.134-.983-1.134-.983-.217.025-.24.19-.24.19v3.748a.971.971 0 0 0-.556-.019c-.443.109-.73.475-.646.814.05.314.512.524.953.413zm3.84.009c.27-.067.458-.272.46-.481l.007-2.479s.54-.029 1.068.799c0 0 .001-.428-.404-.74-.793-.554-.791-.685-.791-.685-.151.018-.167.133-.167.133v2.611a.676.676 0 0 0-.388-.012c-.308.076-.509.33-.45.566.034.219.356.366.665.288z" fill="#006DF0"/></svg>